<svg xmlns:xlink="http://www.w3.org/1999/xlink" width="804" height="804" fill="none" xmlns="http://www.w3.org/2000/svg" id="svg-1459634314_1307"><path d="M339.671 16.963c38.715-21.717 85.943-21.717 124.658 0l7.202 4.04a127.403 127.403 0 0 0 60.751 16.279l8.258.102c44.387.55 85.287 24.164 107.956 62.329l4.218 7.1a127.407 127.407 0 0 0 44.473 44.473l7.1 4.218c38.165 22.669 61.779 63.569 62.329 107.956l.102 8.258a127.404 127.404 0 0 0 16.278 60.751l4.041 7.202c21.717 38.715 21.717 85.943 0 124.658l-4.041 7.202a127.404 127.404 0 0 0-16.278 60.751l-.102 8.258c-.55 44.387-24.164 85.287-62.329 107.956l-7.1 4.218a127.407 127.407 0 0 0-44.473 44.473l-4.218 7.1c-22.669 38.165-63.569 61.779-107.956 62.329l-8.258.102a127.404 127.404 0 0 0-60.751 16.278l-7.202 4.041c-38.715 21.717-85.943 21.717-124.658 0l-7.202-4.041a127.404 127.404 0 0 0-60.751-16.278l-8.258-.102c-44.387-.55-85.287-24.164-107.956-62.329l-4.218-7.1a127.407 127.407 0 0 0-44.473-44.473l-7.1-4.218c-38.165-22.669-61.779-63.569-62.329-107.956l-.102-8.258a127.403 127.403 0 0 0-16.278-60.751l-4.04-7.202a127.397 127.397 0 0 1 0-124.658l4.04-7.202a127.403 127.403 0 0 0 16.278-60.751l.102-8.258c.55-44.387 24.164-85.287 62.329-107.956l7.1-4.218a127.407 127.407 0 0 0 44.473-44.473l4.218-7.1c22.669-38.165 63.569-61.779 107.956-62.329l8.258-.102a127.403 127.403 0 0 0 60.751-16.278l7.202-4.04Z" fill="#000"></path></svg>